<svg width="18" height="18" viewBox="0 0 18 18" fill="none" xmlns="http://www.w3.org/2000/svg">
<path d="M9.17292 17.9698C9.11359 17.9698 9.05426 17.9698 8.99453 17.9695C7.59009 17.9729 6.29241 17.9372 5.03041 17.8604C3.87339 17.79 2.81726 17.3902 1.97601 16.7043C1.1643 16.0424 0.609986 15.1475 0.328524 14.0446C0.0835602 13.0845 0.0705738 12.142 0.0581342 11.2304C0.0491121 10.5763 0.0398166 9.80122 0.0379028 9.01305C0.0398166 8.22159 0.0491121 7.44654 0.0581342 6.79246C0.0705738 5.88099 0.0835602 4.93848 0.328524 3.97821C0.609986 2.87537 1.1643 1.98043 1.97601 1.31856C2.81726 0.632632 3.87339 0.232803 5.03054 0.162405C6.29254 0.0857201 7.5905 0.0499064 8.99794 0.0533237C10.4028 0.0503164 11.7001 0.0857201 12.9621 0.162405C14.1191 0.232803 15.1752 0.632632 16.0165 1.31856C16.8283 1.98043 17.3825 2.87537 17.6639 3.97821C17.9089 4.93835 17.9219 5.88099 17.9343 6.79246C17.9434 7.44654 17.9528 8.22159 17.9546 9.00977V9.01305C17.9528 9.80122 17.9434 10.5763 17.9343 11.2304C17.9219 12.1418 17.909 13.0843 17.6639 14.0446C17.3825 15.1475 16.8283 16.0424 16.0165 16.7043C15.1752 17.3902 14.1191 17.79 12.9621 17.8604C11.7535 17.934 10.512 17.9698 9.17292 17.9698ZM8.99453 16.5697C10.3761 16.573 11.6447 16.5382 12.877 16.4633C13.7519 16.4101 14.5104 16.1262 15.1319 15.6195C15.7063 15.151 16.1019 14.5047 16.3076 13.6985C16.5116 12.8993 16.5233 12.0411 16.5347 11.2112C16.5436 10.5615 16.5529 9.79193 16.5548 9.01141C16.5529 8.23075 16.5436 7.4613 16.5347 6.8116C16.5233 5.98173 16.5116 5.12357 16.3076 4.32418C16.1019 3.51796 15.7063 2.87167 15.1319 2.40322C14.5104 1.89664 13.7519 1.61273 12.877 1.55955C11.6447 1.48451 10.3761 1.44992 8.99781 1.45293C7.61647 1.44965 6.34777 1.48451 5.11543 1.55955C4.24056 1.61273 3.48202 1.89664 2.86059 2.40322C2.28618 2.87167 1.89058 3.51796 1.68485 4.32418C1.48089 5.12357 1.46914 5.98159 1.45779 6.8116C1.4489 7.46185 1.43961 8.23184 1.4377 9.01305C1.43961 9.79084 1.4489 10.561 1.45779 11.2112C1.46914 12.0411 1.48089 12.8993 1.68485 13.6985C1.89058 14.5047 2.28618 15.151 2.86059 15.6195C3.48202 16.126 4.24056 16.41 5.11543 16.4631C6.34777 16.5382 7.61674 16.5732 8.99453 16.5697ZM8.96117 13.3856C6.54926 13.3856 4.58682 11.4234 4.58682 9.01141C4.58682 6.59945 6.54926 4.63721 8.96117 4.63721C11.3732 4.63721 13.3355 6.59945 13.3355 9.01141C13.3355 11.4234 11.3732 13.3856 8.96117 13.3856ZM8.96117 6.03695C7.32106 6.03695 5.98661 7.37136 5.98661 9.01141C5.98661 10.6515 7.32106 11.9859 8.96117 11.9859C10.6014 11.9859 11.9357 10.6515 11.9357 9.01141C11.9357 7.37136 10.6014 6.03695 8.96117 6.03695ZM13.8255 3.23747C13.2457 3.23747 12.7756 3.70742 12.7756 4.28727C12.7756 4.86713 13.2457 5.33708 13.8255 5.33708C14.4053 5.33708 14.8753 4.86713 14.8753 4.28727C14.8753 3.70742 14.4053 3.23747 13.8255 3.23747Z" fill="#444444"/>
</svg>
