<svg width="20" height="18" viewBox="0 0 20 18" fill="none" xmlns="http://www.w3.org/2000/svg">
<path d="M19.7765 2.79567C19.0497 3.12268 18.2752 3.33943 17.4677 3.44467C18.2984 2.93599 18.9324 2.13663 19.2305 1.17314C18.456 1.64674 17.6009 1.98127 16.6896 2.16796C15.9542 1.36484 14.906 0.867432 13.7626 0.867432C11.5442 0.867432 9.75827 2.71423 9.75827 4.97824C9.75827 5.304 9.78514 5.61723 9.85111 5.91542C6.51983 5.74878 3.57213 4.11123 1.59193 1.61667C1.24622 2.23185 1.04344 2.93599 1.04344 3.69401C1.04344 5.11732 1.75807 6.379 2.82329 7.10945C2.17952 7.09692 1.54795 6.90522 1.0129 6.60327C1.0129 6.6158 1.0129 6.63209 1.0129 6.64838C1.0129 8.64552 2.40185 10.3044 4.22324 10.6865C3.89707 10.778 3.54159 10.8218 3.17267 10.8218C2.91614 10.8218 2.65716 10.8068 2.41406 10.7517C2.93324 12.3792 4.40648 13.5757 6.15824 13.6146C4.79494 14.7084 3.06395 15.3674 1.19003 15.3674C0.86142 15.3674 0.54625 15.3524 0.231079 15.311C2.00605 16.485 4.10963 17.1553 6.37812 17.1553C13.7516 17.1553 17.7829 10.8907 17.7829 5.46061C17.7829 5.27894 17.7768 5.10353 17.7682 4.92938C18.5635 4.35053 19.2317 3.6276 19.7765 2.79567Z" fill="#444444"/>
</svg>
