<svg width="24" height="18" viewBox="0 0 24 18" fill="none" xmlns="http://www.w3.org/2000/svg">
<path d="M12.0105 17.1553C12.0086 17.1553 12.0065 17.1553 12.0045 17.1553C11.3164 17.1507 5.23359 17.0958 3.51022 16.6351C2.3058 16.3151 1.35503 15.3764 1.0304 14.1857C0.579461 12.5123 0.608167 9.29064 0.611298 9.03338C0.608341 8.77733 0.579287 5.52897 1.02901 3.84185C1.02953 3.84031 1.02988 3.83859 1.0304 3.83704C1.35138 2.65996 2.32354 1.69216 3.50726 1.37128C3.51022 1.37042 3.51335 1.36973 3.5163 1.36887C5.2202 0.926243 11.315 0.872075 12.0045 0.867432H12.0168C12.7066 0.872075 18.8056 0.92693 20.5131 1.3883C21.7144 1.70747 22.6645 2.645 22.99 3.83412C23.4578 5.52244 23.4145 8.77785 23.4098 9.05264C23.4131 9.32331 23.4404 12.5161 22.9921 14.1979C22.9917 14.1996 22.9912 14.2012 22.9909 14.2027C22.6661 15.3934 21.7155 16.3321 20.5097 16.6525C20.5081 16.653 20.5064 16.6534 20.5048 16.6539C18.8011 17.0963 12.7061 17.1505 12.0168 17.1553C12.0147 17.1553 12.0126 17.1553 12.0105 17.1553ZM2.751 4.29343C2.35503 5.78262 2.39244 8.98953 2.39278 9.02186V9.04508C2.38095 9.93446 2.42253 12.5101 2.75117 13.73C2.91053 14.3142 3.37939 14.7769 3.97403 14.9349C5.2456 15.2749 10.1998 15.3819 12.0105 15.3944C13.826 15.3819 18.7875 15.2778 20.0497 14.9514C20.6424 14.7929 21.1097 14.3317 21.2701 13.7469C21.5991 12.5091 21.6403 9.94598 21.6283 9.06227C21.6283 9.05299 21.6283 9.0437 21.6285 9.03441C21.6448 8.13437 21.6127 5.52863 21.2717 4.29893C21.2713 4.29773 21.271 4.29652 21.2708 4.29532C21.1107 3.70858 20.6417 3.24584 20.0471 3.0878C18.7879 2.74749 13.8256 2.64087 12.0105 2.62832C10.1964 2.64087 5.23968 2.74474 3.97368 3.07078C3.39035 3.2307 2.91088 3.70996 2.751 4.29343ZM22.1308 13.9737H22.1313H22.1308ZM9.74002 12.577V5.44557L15.9752 9.01137L9.74002 12.577Z" fill="#444444"/>
</svg>
